PathFileType	4	(X/Y/Z)	53_2_25_p1_0-345_filt_butterworth.trc
DataRate	CameraRate	NumFrames	NumMarkers	Units	OrigDataRate	OrigDataStartFrame	OrigNumFrames
46.0	46.0	5	27	m	46.0	86	345
Frame#	Time	RHip			RKnee			RAnkle			RBigToe			RSmallToe			RHeel			LHip			LKnee			LAnkle			LBigToe			LSmallToe			LHeel			Neck			Head			Nose			RShoulder			RElbow			RWrist			RThumb			RIndex			RPinky			LShoulder			LElbow			LWrist			LThumb			LIndex			LPinky			
		X1	Y1	Z1	X2	Y2	Z2	X3	Y3	Z3	X4	Y4	Z4	X5	Y5	Z5	X6	Y6	Z6	X7	Y7	Z7	X8	Y8	Z8	X9	Y9	Z9	X10	Y10	Z10	X11	Y11	Z11	X12	Y12	Z12	X13	Y13	Z13	X14	Y14	Z14	X15	Y15	Z15	X16	Y16	Z16	X17	Y17	Z17	X18	Y18	Z18	X19	Y19	Z19	X20	Y20	Z20	X21	Y21	Z21	X22	Y22	Z22	X23	Y23	Z23	X24	Y24	Z24	X25	Y25	Z25	X26	Y26	Z26	X27	Y27	Z27	
86	1.8695652173913044	0.3995775783685191	0.8902401338062941	0.7151030463790913	0.39698080436508476	0.41029418150385766	0.8449846007133329	0.3617358781998227	-0.012147782785893763	0.895226699231253	0.3252797901461852	-0.03181538980971061	0.7509614324126442	0.3794510124167203	-0.030904491276480116	0.7473321825490573	0.3334864776696664	-0.08769791151953688	0.9837748313556084	0.204923336071224	0.9016361827962207	0.711011672347332	0.15859543484977137	0.41070386514870993	0.8200533620775796	0.15068627009503022	-0.014356103965118716	0.8838768920601061	0.1765378066187187	-0.030754626514761678	0.7657765594776267	0.11962918943653425	-0.01453340289910357	0.7502896631637144	0.1702685774920396	-0.05872570166065999	0.9186681727944702	0.3120726421972043	1.3953156283865538	0.6878236623775724	0.319650558796885	1.6262168797860639	0.6174020360767876	0.3087842844236481	1.5052263710872207	0.5384235605337969	0.45577710416113426	1.3238899126974975	0.7046404543398999	0.5640857684649943	1.0526579625319192	0.8541122111585501	0.5620396561198431	0.8393147144748198	0.7471149847108318	0.4682953903955871	0.7617509318310194	0.7069703244675887	0.47800117397617564	0.7285683894935152	0.6982663500846821	0.5084411946445495	0.7112368160545308	0.7387368504680589	0.15934029327816598	1.3208504407391737	0.7376526377396402	0.06892420040263444	1.0740549992628188	0.7744279943550151	0.06682568304799363	0.8519977993891533	0.6769642896001308	0.1144477805541133	0.7515157685382287	0.6851701350504964	0.09966782612287589	0.7188216203375233	0.6844658531239979	0.055630710339579996	0.7173611006898546	0.7196974105837877	
87	1.891304347826087	0.39873449130320393	0.8876056056368519	0.7160759894390718	0.3969973556696923	0.4086723009574039	0.8446663506037565	0.3618155893648468	-0.011646472170002711	0.895137226641274	0.3253370916673509	-0.02880110022655704	0.7455464866393551	0.3795152799547461	-0.03095202938817425	0.7475774979695007	0.3333880156472402	-0.08866893634144257	0.9848173826516636	0.20539465026363019	0.8995390199043257	0.7098840538035308	0.15841362405137097	0.40936424141437155	0.820677014312926	0.15093163436714943	-0.01413676114285585	0.8838751833798478	0.17587555982105219	-0.030237917584516452	0.7642529981706127	0.1195475800561252	-0.013713666719548073	0.750185299458869	0.17033302514330895	-0.05878688339590408	0.9185889923648587	0.3121842280498777	1.396760475412295	0.6879267936543766	0.32027132010918224	1.6261822502625745	0.6177260328349239	0.3088343642188066	1.506377580327511	0.5383099400356437	0.45640686372299244	1.3252430609121622	0.707077582666019	0.5723509912343963	1.0595683420408257	0.8672637553993805	0.5834854942702675	0.8499325792764393	0.7579020611669003	0.49057362169415336	0.7688281996685726	0.7158374795511756	0.5029210464161998	0.7359758159676498	0.7074901527722625	0.5310446913601214	0.7213812385597322	0.7502760075605283	0.15940685252289777	1.3215456453438041	0.7375970287123286	0.06393382034538395	1.0768167813678504	0.7793760615350267	0.05592243450813021	0.863513139846281	0.6706321652422123	0.10480745954500333	0.7679072036187858	0.6779464313440301	0.09316261829222428	0.729236596158563	0.6689793620159984	0.04965462633231574	0.7266655519779056	0.7120009722892003	
88	1.9130434782608696	0.3977295655447111	0.885098813848801	0.7174153149230849	0.39701052062547226	0.40678355805079713	0.8444231928263982	0.3620565134430302	-0.011203674410588699	0.8950627628944517	0.32539833411158897	-0.025473716944894448	0.7393617318691273	0.37941629180470565	-0.030835428361728652	0.7471838219794459	0.33326733246891993	-0.08939567028395623	0.9854627641233741	0.20587607689990722	0.8978210181422673	0.70932608412272	0.1582127841126899	0.4082175268650576	0.8213232066244662	0.15111445455062225	-0.013857149566401605	0.8838482373485769	0.17513685617037705	-0.030029097762087807	0.7617386374847143	0.11943514105599454	-0.013019295664981764	0.7503589674454595	0.17034084689471002	-0.058648475016497656	0.9183401080830874	0.3123056494700488	1.3982463354431065	0.6880100256340469	0.3210064007753779	1.625886392021604	0.6179815169570262	0.30884626548275523	1.5077892231533854	0.538184423462954	0.4566663806187753	1.32733918782222	0.7072905733526254	0.5780636578354503	1.0705188513606394	0.8684904275210171	0.6053094485763073	0.8607674670904303	0.7624383754586845	0.5159568358782707	0.7745454631927807	0.7228078566202396	0.5311871340595674	0.7422003178654188	0.7144512146137447	0.5563964135183134	0.7307672094676931	0.756865167851146	0.15953914366006489	1.322400641862018	0.7376087087793556	0.0602182042823171	1.0800484111955702	0.7813140623576742	0.04338752374668862	0.8754302198255037	0.6646684503957435	0.09602949114541684	0.785544068759821	0.6625748808413265	0.08635638305184593	0.7433098774416608	0.6488353729314863	0.04217574421546328	0.7386864391220994	0.7001079186533958	
89	1.934782608695652	0.3965731311614386	0.8829471385061509	0.7187431319415226	0.3970181892047802	0.40491706898091073	0.844277992487025	0.36241824102198	-0.010910408995378248	0.895031982838298	0.3255148359770385	-0.022329820907194917	0.7333827814866121	0.3790237534354385	-0.03030000472901808	0.7456778269870814	0.3332063173923966	-0.08994620885385757	0.9857095820228565	0.20642179136898767	0.8962503944872202	0.7093551416102026	0.158109314960625	0.4074267174885869	0.8216894624506271	0.15123087108131508	-0.013555853083263958	0.8838059635712813	0.17454591842096373	-0.02970040174110715	0.7588892221330015	0.11938248264961598	-0.012678851622486706	0.7507680763005907	0.17029748044923573	-0.05834414902676294	0.9179063933669551	0.31250862611844604	1.3995614008076194	0.687786392438008	0.32170649827265585	1.6253203709165265	0.6179680279795341	0.3087665725567921	1.50919933994646	0.5379016850323077	0.4567613424319299	1.3297725768209756	0.7061910161360673	0.5815807004170804	1.0845112868712734	0.8576738812267675	0.6269122705042856	0.8711198513065365	0.7621853172871517	0.5439905070739324	0.7786716718669803	0.7244202474898647	0.5610836714085677	0.7475768279795848	0.715701604205708	0.5830708337020052	0.7386689129676197	0.7562839873325577	0.1597594766186962	1.323338658579775	0.7378985608634764	0.057646020661592065	1.0836726701853203	0.7826997365088838	0.030256461212353786	0.8869205199785251	0.6587415313056798	0.08738330805393113	0.8010013632073051	0.6425300654146108	0.0774428765250467	0.7586624767810385	0.627201455025838	0.032476536782659784	0.7521339848487626	0.6845171984177625	
90	1.9565217391304348	0.39534035184487415	0.8812316996521892	0.7201374765741135	0.39702367595135746	0.4032711755573998	0.8442649951983997	0.3628062829756606	-0.0107653660335537	0.8950364579582575	0.3255646199090034	-0.02013937814251878	0.729031710925877	0.3783054650878561	-0.029317530987015027	0.7432196030777513	0.33320396622586473	-0.09032818036074061	0.9855551399564214	0.20707796766964393	0.894733253420475	0.7096876436514363	0.15809980899369191	0.4068641457968144	0.8218189728649792	0.15126996999746808	-0.013356273878711938	0.8837636012203305	0.17410299521888029	-0.028995146318686583	0.7561147301798454	0.11925233726899688	-0.012744597130625396	0.7511511236926978	0.17020366142792331	-0.057946753627872556	0.9172897774105352	0.3127082483057761	1.400584838901566	0.687453239735993	0.32234800398341024	1.6245454623634925	0.6178507462765668	0.30864696826575166	1.5104460016691503	0.5376400316424569	0.4567202952044106	1.3320254218338305	0.7052918429298317	0.5842849070741924	1.09942242188444	0.8410931516356667	0.6480766699798424	0.8820689080038406	0.756825397626794	0.5744982826097473	0.7817236623371802	0.7184624590064477	0.5921014358145735	0.7527196168159804	0.709482238392616	0.6114153807805904	0.7446823412973335	0.7504886269023103	0.15999361820755306	1.324491621009872	0.7382679250787685	0.055490765473771464	1.0874926032358907	0.7860866539882478	0.01763412561143333	0.8978468108143526	0.6517535912946678	0.07735647171175458	0.8138021448224528	0.6181010094079258	0.06483449879935771	0.7744138715564413	0.6033961935351029	0.020027390456038952	0.7658776077309324	0.6666598083383098	
